<svg xmlns="http://www.w3.org/2000/svg" xmlns:xlink="http://www.w3.org/1999/xlink" width="144.001" height="43.395" viewBox="0 0 144.001 43.395"><defs><clipPath id="a"><rect width="144.001" height="43.395" transform="translate(0.001 0.002)" fill="none"/></clipPath></defs><g transform="translate(-0.001 -0.002)" clip-path="url(#a)"><path d="M138.177,100.9c-8.367,6.175-20.5,9.458-30.941,9.458a56,56,0,0,1-37.8-14.419c-.784-.707-.085-1.673.857-1.126a76.077,76.077,0,0,0,37.82,10.035,75.225,75.225,0,0,0,28.847-5.9c1.414-.6,2.6.932,1.216,1.956" transform="translate(-48.885 -66.965)" fill="#f8991d" fill-rule="evenodd"/><path d="M291.832,93.289c-1.071-1.369-7.074-.649-9.771-.326-.817.1-.944-.616-.207-1.133,4.789-3.364,12.637-2.393,13.549-1.267s-.242,9-4.73,12.759c-.69.577-1.347.269-1.041-.493,1.011-2.522,3.272-8.169,2.2-9.54" transform="translate(-199.058 -63.325)" fill="#f8991d" fill-rule="evenodd"/><path d="M282.52,6.3V3.026a.808.808,0,0,1,.829-.828H298a.816.816,0,0,1,.845.824v2.8a4.609,4.609,0,0,1-1.1,2.058l-7.589,10.834a16.257,16.257,0,0,1,8.356,1.795,1.5,1.5,0,0,1,.778,1.276v3.488c0,.48-.526,1.037-1.08.747a16.871,16.871,0,0,0-15.478.03c-.509.271-1.043-.277-1.043-.758V21.979a3.946,3.946,0,0,1,.545-2.246l8.792-12.614h-7.655a.814.814,0,0,1-.846-.823" transform="translate(-199.282 -1.554)" fill="#343e48" fill-rule="evenodd"/><path d="M89.156,25.69H84.7a.841.841,0,0,1-.8-.754l0-22.873a.839.839,0,0,1,.86-.823h4.15a.836.836,0,0,1,.809.768V4.992h.084A5.88,5.88,0,0,1,95.675.755c2.787,0,4.535,1.349,5.783,4.237a6.582,6.582,0,0,1,11.316-1.733c1.415,1.925,1.124,4.717,1.124,7.173l0,14.436a.841.841,0,0,1-.86.823h-4.451a.835.835,0,0,1-.8-.821l0-12.128a29.239,29.239,0,0,0-.125-4.283,2.324,2.324,0,0,0-2.621-1.975,2.958,2.958,0,0,0-2.663,1.877,13.835,13.835,0,0,0-.416,4.381V24.867a.841.841,0,0,1-.859.823H96.646a.836.836,0,0,1-.8-.821l0-12.128c0-2.551.416-6.306-2.745-6.306-3.2,0-3.079,3.658-3.079,6.306l0,12.126a.841.841,0,0,1-.86.823" transform="translate(-59.357 -0.533)" fill="#343e48" fill-rule="evenodd"/><path d="M359.2.758c6.616,0,10.192,5.681,10.192,12.9,0,6.978-3.952,12.515-10.192,12.515-6.49,0-10.027-5.682-10.027-12.756,0-7.124,3.577-12.66,10.027-12.66m.041,4.67c-3.287,0-3.494,4.475-3.494,7.267s-.042,8.761,3.453,8.761c3.454,0,3.619-4.814,3.619-7.749a21.191,21.191,0,0,0-.665-6.066,2.79,2.79,0,0,0-2.913-2.213" transform="translate(-247.03 -0.535)" fill="#343e48" fill-rule="evenodd"/><path d="M434.93,25.69h-4.441a.837.837,0,0,1-.8-.821l-.008-22.883a.844.844,0,0,1,.857-.747h4.133a.848.848,0,0,1,.793.64v3.5h.083c1.249-3.13,3-4.621,6.074-4.621a5.842,5.842,0,0,1,5.2,2.7c1.165,1.829,1.165,4.909,1.165,7.124V24.97a.845.845,0,0,1-.854.72h-4.468a.84.84,0,0,1-.794-.72V12.55c0-2.5.292-6.162-2.787-6.162a2.918,2.918,0,0,0-2.579,1.829,10.174,10.174,0,0,0-.708,4.334V24.867a.853.853,0,0,1-.868.823" transform="translate(-303.986 -0.533)" fill="#343e48" fill-rule="evenodd"/><path d="M212.857,14.232a8.743,8.743,0,0,1-.835,4.728,3.62,3.62,0,0,1-3.084,2.026c-1.71,0-2.71-1.3-2.71-3.233,0-3.8,3.4-4.485,6.63-4.485ZM217.349,25.1a.921.921,0,0,1-1.053.1,10.9,10.9,0,0,1-2.554-2.97c-2.447,2.492-4.179,3.24-7.348,3.24-3.752,0-6.671-2.316-6.671-6.946a7.57,7.57,0,0,1,4.753-7.284c2.418-1.061,5.8-1.254,8.381-1.545V9.117a5.7,5.7,0,0,0-.542-3.231,2.98,2.98,0,0,0-2.5-1.159A3.4,3.4,0,0,0,206.229,7.4a.942.942,0,0,1-.773.82l-4.32-.469a.785.785,0,0,1-.666-.932C201.464,1.583,206.2,0,210.438,0c2.169,0,5,.578,6.713,2.219,2.169,2.026,1.96,4.728,1.96,7.672v6.942a6.086,6.086,0,0,0,1.683,4.13.84.84,0,0,1-.015,1.184c-.91.763-2.527,2.168-3.417,2.96Z" transform="translate(-141.297 0.001)" fill="#343e48" fill-rule="evenodd"/><path d="M13.132,14.232A8.747,8.747,0,0,1,12.3,18.96a3.62,3.62,0,0,1-3.085,2.026c-1.709,0-2.71-1.3-2.71-3.233,0-3.8,3.405-4.485,6.629-4.485ZM17.626,25.1a.921.921,0,0,1-1.053.1,10.832,10.832,0,0,1-2.555-2.97c-2.448,2.492-4.179,3.24-7.348,3.24C2.918,25.472,0,23.156,0,18.525a7.569,7.569,0,0,1,4.752-7.284c2.418-1.061,5.8-1.254,8.38-1.545V9.117a5.7,5.7,0,0,0-.541-3.231,2.978,2.978,0,0,0-2.5-1.159A3.394,3.394,0,0,0,6.506,7.4a.943.943,0,0,1-.774.82L1.414,7.756a.784.784,0,0,1-.666-.932C1.74,1.583,6.473,0,10.714,0c2.168,0,5,.578,6.713,2.219,2.167,2.026,1.959,4.728,1.959,7.672v6.942a6.086,6.086,0,0,0,1.682,4.13.841.841,0,0,1-.015,1.184c-.91.763-2.528,2.168-3.418,2.96Z" transform="translate(0.001 0.001)" fill="#343e48" fill-rule="evenodd"/></g></svg>