<svg xmlns="http://www.w3.org/2000/svg" xmlns:xlink="http://www.w3.org/1999/xlink" width="176" height="64" viewBox="0 0 176 64"><defs><clipPath id="a"><rect width="73.004" height="22" fill="#fff"/></clipPath></defs><rect width="176" height="64" rx="6" fill="#343e48"/><g transform="translate(51 21)"><g clip-path="url(#a)"><path d="M104.12,97.824c-4.242,3.13-10.391,4.795-15.686,4.795a28.389,28.389,0,0,1-19.162-7.31c-.4-.358-.043-.848.434-.571a38.569,38.569,0,0,0,19.173,5.087A38.137,38.137,0,0,0,103.5,96.833c.717-.3,1.318.473.616.991" transform="translate(-58.852 -80.619)" fill="#f8991d" fill-rule="evenodd"/><path d="M286.673,91.427c-.543-.694-3.586-.329-4.954-.165-.414.05-.479-.312-.1-.574,2.428-1.705,6.406-1.213,6.869-.642s-.123,4.565-2.4,6.468c-.35.293-.683.136-.528-.25.512-1.279,1.659-4.142,1.115-4.837" transform="translate(-239.64 -76.237)" fill="#f8991d" fill-rule="evenodd"/><path d="M282.108,4.275V2.618a.41.41,0,0,1,.42-.42h7.427a.413.413,0,0,1,.428.418V4.037a2.336,2.336,0,0,1-.559,1.043l-3.847,5.493a8.242,8.242,0,0,1,4.236.91.758.758,0,0,1,.394.647V13.9c0,.243-.267.526-.547.378a8.553,8.553,0,0,0-7.847.015c-.258.137-.529-.14-.529-.384V12.226a2,2,0,0,1,.276-1.139l4.457-6.395h-3.881a.413.413,0,0,1-.429-.417" transform="translate(-239.909 -1.872)" fill="#fff" fill-rule="evenodd"/><path d="M86.565,13.4h-2.26a.426.426,0,0,1-.4-.382l0-11.6A.425.425,0,0,1,84.339,1h2.1a.424.424,0,0,1,.41.389V2.9H86.9a3.1,3.1,0,0,1,5.905,0,3.337,3.337,0,0,1,5.737-.879c.717.976.57,2.391.57,3.636l0,7.318a.426.426,0,0,1-.436.417H96.414a.424.424,0,0,1-.4-.416V6.832a14.823,14.823,0,0,0-.063-2.171,1.178,1.178,0,0,0-1.329-1,1.5,1.5,0,0,0-1.35.952,7.014,7.014,0,0,0-.211,2.221v6.147a.426.426,0,0,1-.436.417H90.362a.424.424,0,0,1-.406-.416l0-6.148c0-1.293.211-3.2-1.392-3.2C86.938,3.635,87,5.489,87,6.832v6.147a.427.427,0,0,1-.436.417" transform="translate(-71.458 -0.643)" fill="#fff" fill-rule="evenodd"/><path d="M354.259.758c3.354,0,5.167,2.88,5.167,6.54,0,3.538-2,6.345-5.167,6.345-3.29,0-5.083-2.88-5.083-6.467,0-3.612,1.814-6.418,5.083-6.418m.021,2.367c-1.666,0-1.771,2.269-1.771,3.684s-.021,4.441,1.751,4.441c1.751,0,1.835-2.44,1.835-3.928a10.743,10.743,0,0,0-.337-3.075,1.415,1.415,0,0,0-1.477-1.122" transform="translate(-297.392 -0.646)" fill="#fff" fill-rule="evenodd"/><path d="M432.342,13.4h-2.251a.424.424,0,0,1-.405-.416l0-11.6A.428.428,0,0,1,430.116,1h2.1a.43.43,0,0,1,.4.324V3.1h.042c.633-1.587,1.518-2.343,3.079-2.343a2.962,2.962,0,0,1,2.637,1.367,7.378,7.378,0,0,1,.591,3.612v7.3a.428.428,0,0,1-.433.365h-2.265a.426.426,0,0,1-.4-.365v-6.3c0-1.269.148-3.124-1.413-3.124a1.479,1.479,0,0,0-1.308.927,5.159,5.159,0,0,0-.359,2.2v6.245a.433.433,0,0,1-.44.417" transform="translate(-365.958 -0.643)" fill="#fff" fill-rule="evenodd"/><path d="M206.382,7.215a4.432,4.432,0,0,1-.424,2.4,1.835,1.835,0,0,1-1.564,1.027c-.867,0-1.374-.661-1.374-1.639,0-1.924,1.726-2.274,3.361-2.274Zm2.277,5.509a.467.467,0,0,1-.534.053,5.524,5.524,0,0,1-1.295-1.506,4.479,4.479,0,0,1-3.725,1.642,3.207,3.207,0,0,1-3.382-3.522,3.838,3.838,0,0,1,2.41-3.693,15.641,15.641,0,0,1,4.249-.783V4.622a2.891,2.891,0,0,0-.275-1.638,1.511,1.511,0,0,0-1.269-.587,1.721,1.721,0,0,0-1.816,1.357.478.478,0,0,1-.392.416l-2.19-.238a.4.4,0,0,1-.338-.473C200.606.8,203.005,0,205.155,0a5.123,5.123,0,0,1,3.4,1.125c1.1,1.027.993,2.4.993,3.889v3.52a3.085,3.085,0,0,0,.853,2.094.426.426,0,0,1-.008.6c-.462.387-1.281,1.1-1.732,1.5Z" transform="translate(-170.103 0)" fill="#fff" fill-rule="evenodd"/><path d="M6.658,7.215a4.435,4.435,0,0,1-.423,2.4,1.835,1.835,0,0,1-1.564,1.027C3.8,10.639,3.3,9.978,3.3,9c0-1.924,1.726-2.274,3.361-2.274Zm2.278,5.509a.467.467,0,0,1-.534.053,5.491,5.491,0,0,1-1.3-1.506,4.48,4.48,0,0,1-3.725,1.642A3.207,3.207,0,0,1,0,9.392,3.837,3.837,0,0,1,2.409,5.7a15.642,15.642,0,0,1,4.248-.783V4.622a2.891,2.891,0,0,0-.275-1.638A1.51,1.51,0,0,0,5.115,2.4,1.721,1.721,0,0,0,3.3,3.754a.478.478,0,0,1-.392.416L.717,3.932a.4.4,0,0,1-.338-.473C.882.8,3.281,0,5.432,0a5.125,5.125,0,0,1,3.4,1.125c1.1,1.027.993,2.4.993,3.889v3.52a3.085,3.085,0,0,0,.853,2.094.426.426,0,0,1-.007.6c-.461.387-1.282,1.1-1.733,1.5Z" transform="translate(0 0)" fill="#fff" fill-rule="evenodd"/></g></g></svg>