<svg id="cart3" xmlns="http://www.w3.org/2000/svg" width="16" height="16" viewBox="0 0 16 16">
  <g id="グループ_87" data-name="グループ 87">
    <path id="パス_14" data-name="パス 14" d="M0,3.533A.533.533,0,0,1,.533,3h1.6a.533.533,0,0,1,.517.4l.432,1.729H15.467a.533.533,0,0,1,.523.638L14.923,11.1a.533.533,0,0,1-.5.428l-10.024.5.306,1.631h9.158a.533.533,0,1,1,0,1.067h-9.6a.533.533,0,0,1-.524-.435l-1.6-8.518L1.717,4.067H.533A.533.533,0,0,1,0,3.533ZM3.309,6.2l.9,4.778,9.754-.49L14.816,6.2Zm2.025,8.534a2.133,2.133,0,1,0,2.133,2.133A2.133,2.133,0,0,0,5.333,14.734Zm7.467,0a2.133,2.133,0,1,0,2.133,2.133A2.133,2.133,0,0,0,12.8,14.734ZM5.333,15.8a1.067,1.067,0,1,1-1.067,1.067A1.067,1.067,0,0,1,5.333,15.8Zm7.467,0a1.067,1.067,0,1,1-1.067,1.067A1.067,1.067,0,0,1,12.8,15.8Z" transform="translate(0 -3)" fill="#fdfdfd"/>
  </g>
</svg>
