<svg xmlns="http://www.w3.org/2000/svg" width="24" height="24" viewBox="0 0 24 24"><path d="M7.03.084A8.776,8.776,0,0,0,4.119.647,5.87,5.87,0,0,0,2,2.035,5.88,5.88,0,0,0,.616,4.163,8.815,8.815,0,0,0,.064,7.077C.008,8.357,0,8.765,0,12.023s.021,3.667.082,4.948a8.8,8.8,0,0,0,.563,2.911A5.875,5.875,0,0,0,2.034,22a5.884,5.884,0,0,0,2.128,1.38,8.806,8.806,0,0,0,2.913.552c1.28.056,1.689.069,4.946.063s3.668-.021,4.948-.081a8.82,8.82,0,0,0,2.911-.563,6.132,6.132,0,0,0,3.5-3.516,8.787,8.787,0,0,0,.552-2.913c.056-1.281.069-1.69.063-4.948s-.021-3.667-.082-4.946a8.8,8.8,0,0,0-.563-2.912A5.887,5.887,0,0,0,21.966,2,5.873,5.873,0,0,0,19.838.617,8.779,8.779,0,0,0,16.924.065C15.644.008,15.236,0,11.977,0S8.31.022,7.03.084m.14,21.693a6.654,6.654,0,0,1-2.229-.408,3.74,3.74,0,0,1-1.382-.9,3.729,3.729,0,0,1-.9-1.378,6.646,6.646,0,0,1-.417-2.228c-.059-1.265-.073-1.644-.079-4.848s.005-3.583.061-4.849a6.644,6.644,0,0,1,.408-2.228,3.723,3.723,0,0,1,.9-1.382,3.717,3.717,0,0,1,1.378-.9,6.64,6.64,0,0,1,2.227-.417c1.266-.06,1.645-.073,4.848-.079s3.584.005,4.85.061a6.629,6.629,0,0,1,2.228.408,3.714,3.714,0,0,1,1.382.9,3.716,3.716,0,0,1,.9,1.379,6.624,6.624,0,0,1,.417,2.226c.06,1.266.074,1.645.08,4.848s-.005,3.584-.061,4.849a6.654,6.654,0,0,1-.408,2.229,3.975,3.975,0,0,1-2.274,2.282,6.646,6.646,0,0,1-2.226.417c-1.266.059-1.645.073-4.849.079s-3.582-.006-4.848-.061M16.953,5.586A1.44,1.44,0,1,0,18.39,4.144a1.44,1.44,0,0,0-1.437,1.442M5.839,12.012a6.162,6.162,0,1,0,6.149-6.173,6.161,6.161,0,0,0-6.149,6.173m2.161,0A4,4,0,1,1,12.007,16,4,4,0,0,1,8,12.008" transform="translate(0 0)" fill="#000"/></svg>