<svg xmlns="http://www.w3.org/2000/svg" width="25.188" height="24" viewBox="0 0 25.188 24"><path d="M25.188,10.22C25.188,4.585,19.539,0,12.594,0S0,4.585,0,10.22C0,15.273,4.48,19.5,10.533,20.3c.41.089.968.27,1.11.621a2.589,2.589,0,0,1,.041,1.139s-.148.889-.18,1.078c-.055.318-.253,1.245,1.091.679s7.253-4.271,9.9-7.312h0a9.093,9.093,0,0,0,2.7-6.288M8.151,13.234a.24.24,0,0,1-.24.24H4.372a.24.24,0,0,1-.24-.24v0h0V7.738a.24.24,0,0,1,.24-.24h.893a.241.241,0,0,1,.24.24V12.1h2.4a.241.241,0,0,1,.24.24Zm2.13,0a.24.24,0,0,1-.24.24H9.147a.24.24,0,0,1-.24-.24v-5.5a.24.24,0,0,1,.24-.24h.893a.24.24,0,0,1,.24.24Zm6.08,0a.24.24,0,0,1-.24.24h-.888a.246.246,0,0,1-.063-.008h0l-.017-.005-.008,0-.012-.005-.012-.006-.007,0-.015-.009,0,0a.239.239,0,0,1-.062-.061l-2.518-3.4v3.264a.24.24,0,0,1-.24.24H11.38a.24.24,0,0,1-.24-.24v-5.5a.24.24,0,0,1,.24-.24h.909l.013,0,.01,0,.014,0,.008,0,.015,0,.008,0,.014.006.008,0,.013.007.007,0,.013.009.007,0,.013.011,0,0,.014.015,0,0a.244.244,0,0,1,.019.025L14.987,11V7.738a.24.24,0,0,1,.24-.24h.893a.24.24,0,0,1,.24.24Zm4.878-4.6a.24.24,0,0,1-.24.24h-2.4V9.8H21a.241.241,0,0,1,.24.241v.893a.24.24,0,0,1-.24.24h-2.4V12.1H21a.241.241,0,0,1,.24.24v.893a.24.24,0,0,1-.24.24H17.46a.24.24,0,0,1-.24-.24v0h0V7.743h0V7.738a.24.24,0,0,1,.24-.24H21a.241.241,0,0,1,.24.24Z" fill="#000"/></svg>