<svg xmlns="http://www.w3.org/2000/svg" width="102.317" height="69.918" viewBox="0 0 102.317 69.918"><path d="M57.23,13.519V23.813H46.855v1.979H57.23V36.167h2.055V25.792H69.66V23.813H59.285V13.519Z" transform="translate(32.656 9.423)"/><path d="M63.633,59.9c-.35-.075-.533.244-.672.619-.945,2.556-2.118,3.472-4.371,3.048-2.449-.458-5.525-1.834-10.016-4.21-1.931-1.03-4.151-2.532-6.343-4C49.6,50.157,55.2,40.878,55.2,28.07,55.2,12.588,43.555,0,27.6,0,14.543,0,0,11.651,0,32.059c0,13.289,8.342,24.2,20.557,27.26a8.8,8.8,0,0,0,.117,1.59,7.99,7.99,0,0,0,1.911,3.983,8.736,8.736,0,0,0,4.8,2.512c1.816.078,3.055-1.351,2.192-3.112-1.273-2.6-3.973-.855-5.2-2.6a8.432,8.432,0,0,1-.988-1.812,29.209,29.209,0,0,0,4.212.334,24.685,24.685,0,0,0,10.245-2.33A50.375,50.375,0,0,1,42.8,62.121c3.316,3.292,5.525,6.727,10.034,7.572,4.964.93,9.094-.828,11.142-8.918.071-.387-.029-.808-.348-.876M11.728,30.026c0-8.21,1.644-18.265,7.115-23.9A10.687,10.687,0,0,1,27.6,2.3c3.6,0,5.4.859,8.444,3.441,5.787,5.081,7.428,14.82,7.428,24.36,0,7.394-1.359,16.591-5.624,22.466A17.238,17.238,0,0,0,34.566,51c-6.615-2.08-10.759.329-12.687,3.8a13.529,13.529,0,0,0-.733,1.553c-.621-.429-1.268-.937-1.989-1.546-5.785-5.084-7.429-15.242-7.429-24.781M27.6,58.25a10.894,10.894,0,0,1-4.482-.779,5.45,5.45,0,0,1,.994-2.23c1.164-1.627,3.6-2.474,6.291-1.638a20.445,20.445,0,0,1,4.46,2.218A10.326,10.326,0,0,1,27.6,58.25"/></svg>