<svg id="グループ_718" data-name="グループ 718" xmlns="http://www.w3.org/2000/svg" width="328" height="215" viewBox="0 0 328 215">
  <path id="パス_150" data-name="パス 150" d="M0,0H215V328H0Z" transform="translate(328) rotate(90)" fill="#f6f7f7"/>
  <g id="グループ_488" data-name="グループ 488" transform="translate(134 87.01)">
    <path id="パス_1" data-name="パス 1" d="M52.939,13.519v6.036H46.855v1.16h6.084V26.8h1.205V20.716h6.084v-1.16H54.144V13.519Z" transform="translate(-0.228 -0.066)"/>
    <path id="パス_2" data-name="パス 2" d="M37.315,35.126c-.2-.044-.312.143-.394.363-.554,1.5-1.242,2.036-2.563,1.787a22.964,22.964,0,0,1-5.873-2.469c-1.132-.6-2.434-1.485-3.72-2.344,4.322-3.051,7.608-8.492,7.608-16C32.373,7.382,25.541,0,16.187,0,8.528,0,0,6.833,0,18.8A16.069,16.069,0,0,0,12.055,34.786a5.163,5.163,0,0,0,.069.932,4.686,4.686,0,0,0,1.121,2.336,5.123,5.123,0,0,0,2.813,1.473A1.229,1.229,0,0,0,17.343,37.7c-.746-1.523-2.33-.5-3.047-1.528a4.944,4.944,0,0,1-.579-1.063,17.13,17.13,0,0,0,2.47.2,14.475,14.475,0,0,0,6.008-1.366A29.541,29.541,0,0,1,25.1,36.429c1.944,1.931,3.24,3.945,5.884,4.44,2.911.545,5.333-.486,6.534-5.229.042-.227-.017-.474-.2-.513M6.877,17.608c0-4.814.964-10.711,4.173-14.012A6.267,6.267,0,0,1,16.187,1.35c2.109,0,3.165.5,4.952,2.018,3.393,2.979,4.356,8.69,4.356,14.285,0,4.336-.8,9.729-3.3,13.175a10.108,10.108,0,0,0-1.927-.92c-3.879-1.22-6.309.193-7.44,2.228a7.933,7.933,0,0,0-.43.911c-.364-.252-.743-.549-1.166-.907C7.842,29.158,6.877,23.2,6.877,17.608m9.309,16.551a6.388,6.388,0,0,1-2.628-.457,3.2,3.2,0,0,1,.583-1.308,3.263,3.263,0,0,1,3.689-.96,11.989,11.989,0,0,1,2.615,1.3,6.055,6.055,0,0,1-4.259,1.424" transform="translate(0 0)"/>
  </g>
</svg>
