<svg xmlns="http://www.w3.org/2000/svg" width="176" height="64" viewBox="0 0 176 64"><rect width="176" height="64" rx="6" fill="#343e48"/><g transform="translate(51.036 21)"><path d="M94.908,56.126H50.182l3.562,3.563Z" transform="translate(-35.396 -37.689)" fill="#fff"/><path d="M49.393,23.423v.539a4.519,4.519,0,0,0-2.6-.837c-3.133,0-5.514,2.857-5.514,6.366s2.38,6.366,5.514,6.366a4.512,4.512,0,0,0,2.6-.836v.538h2.754V23.423Zm-2.6,9.512c-1.545,0-2.676-1.522-2.676-3.443s1.131-3.442,2.676-3.442,2.637,1.522,2.637,3.442-1.09,3.443-2.637,3.443" transform="translate(-30.464 -19.396)" fill="#fff"/><path d="M99.944,23.794v7.129a2.266,2.266,0,1,1-4.514,0V23.794H92.676v7.129A5,5,0,0,0,97.6,36.228a4.227,4.227,0,0,0,2.341-.749v.451H102.7V23.794Z" transform="translate(-58.951 -19.767)" fill="#fff"/><path d="M163.143,35.559V28.43a2.266,2.266,0,1,1,4.514,0v7.129h2.754V28.43a5,5,0,0,0-4.926-5.305,4.227,4.227,0,0,0-2.342.749v-.451h-2.754V35.559Z" transform="translate(-96.485 -19.396)" fill="#fff"/><path d="M19.888,32.168v-4.7h2.038l3.527,4.7h3.606L24.8,26.495a5.226,5.226,0,0,0-3.028-9.487H17.007v15.16Zm0-12.282h1.88a2.35,2.35,0,1,1,0,4.7h-1.88Z" transform="translate(-17.007 -16.005)" fill="#fff"/><path d="M123.822,29.3a1.637,1.637,0,0,1-.921.3,1.358,1.358,0,0,1-1.3-1.489V22.912h2.355V20.031H121.6V17.007h-2.755v3.024h-1.457v2.881h1.457v5.236a4.145,4.145,0,0,0,4.1,4.329,5.676,5.676,0,0,0,2.694-.764Z" transform="translate(-72.651 -16.005)" fill="#fff"/><path d="M74.458,24.474l4.725-5.689H75.322l-3.3,4.228V14.758H69.181V30.921h2.836V25.936l4.062,4.985h3.859Z" transform="translate(-45.927 -14.758)" fill="#fff"/><path d="M139.286,23.1c-3.188,0-5.475,2.8-5.475,6.376a6.13,6.13,0,0,0,5.749,6.377,5.748,5.748,0,0,0,4.878-2.717L142,31.734c-1.881,2.774-5.017,1.366-5.379-1.407l7.934,0c.679-4.359-2.14-7.226-5.274-7.226m2.4,4.809h-4.961a2.5,2.5,0,0,1,4.961,0" transform="translate(-81.752 -19.384)" fill="#fff"/></g></svg>