<svg xmlns="http://www.w3.org/2000/svg" width="144" height="42.854" viewBox="0 0 144 42.854"><path d="M137.3,56.126H50.182l6.939,6.94Z" transform="translate(-21.381 -20.212)"/><path d="M57.079,23.7v1.05a8.8,8.8,0,0,0-5.055-1.63c-6.1,0-10.74,5.566-10.74,12.4s4.637,12.4,10.74,12.4A8.789,8.789,0,0,0,57.079,46.3v1.048h5.364V23.7ZM52.024,42.233c-3.01,0-5.213-2.964-5.213-6.707s2.2-6.7,5.213-6.7,5.137,2.964,5.137,6.7-2.124,6.707-5.137,6.707" transform="translate(-20.208 -15.861)"/><path d="M106.833,23.794V37.681a4.413,4.413,0,1,1-8.792,0V23.794H92.676V37.681c0,5.7,3.9,10.334,9.6,10.334a8.233,8.233,0,0,0,4.56-1.459v.879H112.2V23.794Z" transform="translate(-26.983 -15.95)"/><path d="M165.753,47.346V33.459a4.413,4.413,0,1,1,8.792,0V47.346h5.365V33.459c0-5.7-3.9-10.334-9.6-10.334a8.234,8.234,0,0,0-4.561,1.459v-.879h-5.364v23.64Z" transform="translate(-35.91 -15.861)"/><path d="M22.619,46.538V37.38h3.969l6.871,9.158h7.024l-8.3-11.051a10.179,10.179,0,0,0-5.9-18.48H17.007v29.53Zm0-23.924h3.662a4.577,4.577,0,1,1,0,9.154H22.619Z" transform="translate(-17.007 -15.055)"/><path d="M129.918,40.945a3.188,3.188,0,0,1-1.794.582,2.645,2.645,0,0,1-2.529-2.9V28.509h4.588V22.9h-4.588V17.007h-5.366V22.9h-2.838v5.611h2.838v10.2a8.073,8.073,0,0,0,7.977,8.432,11.056,11.056,0,0,0,5.248-1.488Z" transform="translate(-30.242 -15.055)"/><path d="M79.461,33.683l9.2-11.081H81.143l-6.437,8.235V14.758H69.181V46.242h5.525v-9.71l7.913,9.71h7.517Z" transform="translate(-23.886 -14.758)"/><path d="M144.475,23.1c-6.21,0-10.664,5.456-10.664,12.42,0,7.321,5.592,12.422,11.2,12.422,2.829,0,6.456-.971,9.5-5.292l-4.739-2.736c-3.665,5.4-9.773,2.661-10.478-2.742l15.455,0c1.322-8.491-4.168-14.075-10.273-14.075m4.684,9.368H139.5c1.129-5.537,8.618-5.855,9.663,0" transform="translate(-32.406 -15.859)"/></svg>